#define width 13
#define height 11
static unsigned char bits[] = {
0x0, 0x0, 0x20, 0x8, 0x30, 0xc, 0x38, 0xe, 0x3c, 0xf, 0xbe, 0xf, 0x3c, 0xf, 0x38, 0xe, 0x30, 0xc, 0x20, 0x8, 0x0, 0x0
};
