#define width 16
#define height 16
static unsigned char bits[] = {
0x0, 0x0, 0x0, 0x0, 0x0, 0x0, 0xf8, 0x1f, 0xf8, 0x1f, 0xf8, 0x1f, 0xf8, 0x1f, 0xf8, 0x1f, 0xf8, 0x1f, 0xf8, 0x1f, 0xf8, 0x1f, 0xf8, 0x1f, 0xf8, 0x1f, 0x0, 0x0, 0x0, 0x0, 0x0, 0x0
};
