#define width 7
#define height 16
static unsigned char bits[] = {
0x0, 0x0, 0x0, 0x8, 0x14, 0x22, 0x14, 0x8, 0x0, 0x0, 0x0, 0x0, 0x0, 0x0, 0x0, 0x0
};
