#define width 16
#define height 15
static unsigned char bits[] = {
0x0, 0x0, 0xe0, 0x7, 0xf0, 0xf, 0xf8, 0x1f, 0x7c, 0x3e, 0x7c, 0x3e, 0xf8, 0x3f, 0xc0, 0x3f, 0xc0, 0x3f, 0xf0, 0x1f, 0xf8, 0xf, 0xfc, 0x3, 0xfe, 0x0, 0x1c, 0x0, 0x0, 0x0
};
