#define width 16
#define height 16
static unsigned char bits[] = {
0x80, 0x1, 0xc0, 0x3, 0xe0, 0x7, 0xf0, 0xf, 0xf8, 0x1f, 0xfc, 0x3f, 0xfe, 0x7f, 0xff, 0xff, 0xfc, 0x3f, 0xfc, 0x3f, 0xfc, 0x3f, 0x3c, 0x3c, 0x3c, 0x3c, 0x3c, 0x3c, 0xfc, 0x3f, 0xfc, 0x3f
};
