#define width 13
#define height 11
static unsigned char bits[] = {
0x0, 0x0, 0x82, 0x0, 0x86, 0x1, 0x8e, 0x3, 0x9e, 0x7, 0xbe, 0xf, 0x9e, 0x7, 0x8e, 0x3, 0x86, 0x1, 0x82, 0x0, 0x0, 0x0
};
