#define width 30
#define height 16
static unsigned char bits[] = {
0x0, 0x0, 0x0, 0x0, 0x0, 0x0, 0x2, 0x0, 0x0, 0x0, 0x1, 0x0, 0x6, 0x0, 0x79, 0x1e, 0x1e, 0x80, 0x78, 0x1e, 0x7e, 0x80, 0x78, 0x1e, 0xfe, 0x41, 0x78, 0x1e, 0xfe, 0x47, 0x78, 0x1e, 0xfe, 0x27, 0x78, 0x1e, 0xfe, 0x21, 0x78, 0x1e, 0x7e, 0x10, 0x78, 0x1e, 0x1e, 0x10, 0x78, 0x1e, 0x6, 0x8, 0x78, 0x1e, 0x0, 0x8, 0x0, 0x0, 0x0, 0x4, 0x0, 0x0, 0x0, 0x0, 0x0, 0x0
};
