#define width 10
#define height 16
static unsigned char bits[] = {
0x0, 0x0, 0x0, 0x0, 0x80, 0x0, 0x80, 0x0, 0x40, 0x0, 0x40, 0x0, 0x20, 0x0, 0x20, 0x0, 0x10, 0x0, 0x10, 0x0, 0x8, 0x0, 0x8, 0x0, 0x4, 0x0, 0x4, 0x0, 0x0, 0x0, 0x0, 0x0
};
